<?xml version="1.0" standalone="no"?>
<!DOCTYPE svg PUBLIC "-//W3C//DTD SVG 20010904//EN"
 "http://www.w3.org/TR/2001/REC-SVG-20010904/DTD/svg10.dtd">
<svg version="1.0" xmlns="http://www.w3.org/2000/svg"
 width="474.000000pt" height="474.000000pt" viewBox="0 0 474.000000 474.000000"
 preserveAspectRatio="xMidYMid meet">

<g transform="translate(0.000000,474.000000) scale(0.100000,-0.100000)"
fill="#000000" stroke="none">
<path d="M1629 4150 c-167 -20 -362 -93 -513 -194 -267 -177 -456 -465 -518
-786 -18 -96 -15 -368 5 -458 85 -372 316 -673 642 -835 167 -83 297 -116 491
-124 263 -11 504 54 711 193 l67 45 97 -97 98 -97 -44 -28 c-58 -37 -72 -62
-50 -96 9 -14 244 -252 522 -530 573 -573 554 -558 698 -558 65 0 90 5 136 26
68 32 121 85 157 158 23 47 27 69 27 136 0 144 15 125 -563 703 -280 281 -519
515 -531 521 -28 16 -53 2 -88 -51 -15 -23 -32 -41 -36 -41 -11 1 -187 173
-187 182 0 3 21 38 46 76 232 358 259 801 70 1190 -115 238 -301 427 -538 545
-216 108 -452 149 -699 120z m336 -115 c421 -68 769 -383 880 -795 13 -52 27
-128 31 -169 3 -42 7 -86 9 -99 2 -13 -1 -64 -6 -115 -54 -499 -409 -890 -893
-982 -94 -18 -273 -21 -366 -6 -404 66 -736 342 -869 725 -116 331 -62 716
138 991 254 349 659 518 1076 450z m805 -2000 l94 -95 -34 -35 -34 -35 -98 97
-98 97 32 33 c18 18 35 33 38 33 3 0 48 -43 100 -95z m767 -527 c331 -332 487
-495 498 -520 73 -178 -117 -362 -289 -278 -27 13 -206 185 -521 501 l-480
481 25 16 c59 40 169 146 220 211 30 38 57 70 60 70 3 1 222 -216 487 -481z"/>
<path d="M871 2884 c0 -11 3 -14 6 -6 3 7 2 16 -1 19 -3 4 -6 -2 -5 -13z"/>
<path d="M1016 2457 c3 -10 9 -15 12 -12 3 3 0 11 -7 18 -10 9 -11 8 -5 -6z"/>
<path d="M1060 2395 c13 -14 26 -25 28 -25 3 0 -5 11 -18 25 -13 14 -26 25
-28 25 -3 0 5 -11 18 -25z"/>
<path d="M1105 2340 c10 -11 20 -20 23 -20 3 0 -3 9 -13 20 -10 11 -20 20 -23
20 -3 0 3 -9 13 -20z"/>
</g>
</svg>
