<?xml version="1.0" encoding="utf-8"?>
<!-- Generator: Adobe Illustrator 16.0.0, SVG Export Plug-In . SVG Version: 6.00 Build 0)  -->
<!DOCTYPE svg PUBLIC "-//W3C//DTD SVG 1.0//EN" "http://www.w3.org/TR/2001/REC-SVG-20010904/DTD/svg10.dtd">
<svg version="1.0" id="Layer_1" xmlns="http://www.w3.org/2000/svg" xmlns:xlink="http://www.w3.org/1999/xlink" x="0px" y="0px"
	 width="176.003px" height="137.877px" viewBox="0 0 176.003 137.877" enable-background="new 0 0 176.003 137.877"
	 xml:space="preserve">
<g>
	<path fill="#003349" d="M29.829,107.468c-0.215-0.943-0.474-1.754-0.996-2.434c-0.527-0.676-1.348-1.203-2.231-1.582
		c-0.781-0.332-1.631-0.508-3.013-0.547c-1.382,0.039-2.212,0.215-2.993,0.547c-0.884,0.379-1.631,0.906-2.158,1.582
		c-0.527,0.68-0.83,1.49-1.045,2.434c-0.215,0.945-0.254,1.988-0.254,3.129v9.453h2.764v-8.809c0-1.035,0.098-1.914,0.234-2.646
		c0.142-0.729,0.386-1.318,0.708-1.773c0.322-0.449,0.85-0.775,1.387-0.98c0.361-0.143,0.894-0.225,1.357-0.27
		c0.918,0.045,1.011,0.127,1.372,0.27c0.532,0.205,1.025,0.531,1.348,0.98c0.322,0.455,0.581,1.045,0.723,1.773
		c0.137,0.732,0.239,1.611,0.239,2.646v8.809h2.764v-9.453C30.034,109.457,30.043,108.414,29.829,107.468"/>
</g>
<g>
	<path fill="#003349" d="M34.305,111.867c0-1.484,0.215-2.779,0.645-3.887c0.425-1.104,1.001-2.021,1.704-2.754
		c0.713-0.729,1.528-1.279,2.456-1.646c0.923-0.363,1.865-0.547,2.832-0.547c2.256,0,3.989,0.703,5.19,2.115
		c1.206,1.406,1.807,3.549,1.807,6.426v0.502c0,0.205-0.01,0.396-0.034,0.564H37.43c0.132,1.74,0.635,3.064,1.514,3.967
		c0.879,0.904,2.256,1.354,4.131,1.354c1.05,0,1.938-0.094,2.656-0.273c0.723-0.182,1.265-0.361,1.631-0.533l0.415,2.516
		c-0.361,0.195-1.001,0.395-1.914,0.609s-1.953,0.322-3.115,0.322c-1.46,0-2.725-0.219-3.789-0.658
		c-1.06-0.439-1.938-1.045-2.622-1.822c-0.688-0.771-1.201-1.689-1.533-2.754S34.305,113.136,34.305,111.867 M45.814,110.22
		c0.02-1.352-0.317-2.463-1.021-3.334c-0.698-0.869-1.655-1.305-2.881-1.305c-0.688,0-1.299,0.133-1.821,0.4
		c-0.527,0.27-0.977,0.621-1.338,1.051c-0.366,0.43-0.654,0.922-0.854,1.484c-0.205,0.557-0.337,1.127-0.405,1.703H45.814z"/>
</g>
<g>
	<path fill="#003349" d="M99.007,111.832c0,1.334-0.195,2.539-0.582,3.613c-0.391,1.074-0.932,2.002-1.625,2.773
		c-0.703,0.771-1.539,1.367-2.506,1.787s-2.016,0.631-3.158,0.631c-1.139,0-2.193-0.211-3.154-0.631
		c-0.971-0.42-1.807-1.016-2.5-1.787c-0.697-0.771-1.244-1.699-1.631-2.773c-0.385-1.074-0.576-2.279-0.576-3.613
		c0-1.309,0.191-2.504,0.576-3.588c0.387-1.09,0.934-2.018,1.631-2.793c0.693-0.771,1.529-1.367,2.5-1.787
		c0.961-0.42,2.016-0.631,3.154-0.631c1.143,0,2.191,0.211,3.158,0.631s1.803,1.016,2.506,1.787
		c0.693,0.775,1.234,1.703,1.625,2.793C98.812,109.328,99.007,110.523,99.007,111.832 M95.876,111.832
		c0-1.889-0.424-3.387-1.273-4.492c-0.85-1.107-2.002-1.662-3.467-1.662c-1.461,0-2.611,0.555-3.461,1.662
		c-0.85,1.105-1.275,2.604-1.275,4.492c0,1.895,0.426,3.395,1.275,4.5s2,1.662,3.461,1.662c1.465,0,2.617-0.557,3.467-1.662
		S95.876,113.726,95.876,111.832"/>
</g>
<g>
	<path fill="#003349" d="M107.126,118.058c1.227,0,2.135-0.162,2.725-0.484c0.592-0.322,0.889-0.84,0.889-1.547
		c0-0.729-0.287-1.314-0.869-1.742c-0.58-0.432-1.537-0.914-2.871-1.451c-0.645-0.26-1.264-0.518-1.855-0.789
		c-0.59-0.271-1.098-0.584-1.527-0.949c-0.43-0.367-0.777-0.807-1.035-1.324c-0.254-0.512-0.387-1.146-0.387-1.904
		c0-1.479,0.547-2.658,1.646-3.527c1.094-0.869,2.588-1.307,4.482-1.307c0.469,0,0.941,0.029,1.416,0.084
		c0.473,0.053,0.912,0.117,1.322,0.189c0.406,0.078,0.768,0.156,1.08,0.244c0.312,0.084,0.557,0.162,0.727,0.225l-0.551,2.578
		c-0.322-0.17-0.826-0.35-1.514-0.529c-0.689-0.184-1.514-0.275-2.48-0.275c-0.84,0-1.572,0.166-2.193,0.498
		c-0.625,0.336-0.938,0.859-0.938,1.566c0,0.361,0.068,0.686,0.211,0.967c0.141,0.279,0.355,0.533,0.645,0.758
		c0.293,0.225,0.648,0.434,1.078,0.627s0.947,0.398,1.549,0.615c0.795,0.301,1.508,0.596,2.129,0.883
		c0.625,0.291,1.156,0.633,1.596,1.016c0.439,0.389,0.781,0.854,1.016,1.404c0.24,0.547,0.352,1.221,0.352,2.014
		c0,1.551-0.57,2.719-1.723,3.514c-1.148,0.797-2.789,1.191-4.918,1.191c-1.484,0-2.641-0.121-3.48-0.365
		c-0.84-0.25-1.406-0.436-1.709-0.566l0.551-2.578c0.342,0.127,0.889,0.322,1.641,0.578S105.882,118.058,107.126,118.058"/>
</g>
<g>
	<path fill="#003349" d="M132.406,111.832c0,1.334-0.195,2.539-0.582,3.613c-0.391,1.074-0.932,2.002-1.631,2.773
		c-0.697,0.771-1.527,1.367-2.5,1.787c-0.961,0.42-2.016,0.631-3.154,0.631c-1.137,0-2.191-0.211-3.164-0.631
		c-0.961-0.42-1.797-1.016-2.494-1.787c-0.699-0.771-1.246-1.699-1.627-2.773c-0.391-1.074-0.58-2.279-0.58-3.613
		c0-1.309,0.189-2.504,0.58-3.588c0.381-1.09,0.928-2.018,1.627-2.793c0.697-0.771,1.533-1.367,2.494-1.787
		c0.973-0.42,2.027-0.631,3.164-0.631c1.139,0,2.193,0.211,3.154,0.631c0.973,0.42,1.803,1.016,2.5,1.787
		c0.699,0.775,1.24,1.703,1.631,2.793C132.21,109.328,132.406,110.523,132.406,111.832 M129.275,111.832
		c0-1.889-0.424-3.387-1.273-4.492c-0.85-1.107-2.002-1.662-3.463-1.662c-1.465,0-2.621,0.555-3.467,1.662
		c-0.85,1.105-1.273,2.604-1.273,4.492c0,1.895,0.424,3.395,1.273,4.5c0.846,1.105,2.002,1.662,3.467,1.662
		c1.461,0,2.613-0.557,3.463-1.662S129.275,113.726,129.275,111.832"/>
</g>
<g>
	<path fill="#003349" d="M53.919,116.167c0.21,0.943,0.469,1.758,0.996,2.438c0.527,0.674,1.344,1.201,2.227,1.576
		c0.787,0.338,1.637,0.514,3.018,0.547c1.383-0.033,2.207-0.209,2.994-0.547c0.879-0.375,1.625-0.902,2.158-1.576
		c0.521-0.68,0.824-1.494,1.039-2.438c0.215-0.947,0.254-1.986,0.254-3.125v-9.453h-2.764v8.809c0,1.031-0.092,1.91-0.234,2.643
		c-0.137,0.732-0.385,1.322-0.703,1.771c-0.326,0.455-0.854,0.781-1.391,0.984c-0.361,0.139-0.895,0.223-1.354,0.268
		c-0.922-0.045-1.01-0.129-1.371-0.268c-0.537-0.203-1.025-0.529-1.348-0.984c-0.322-0.449-0.586-1.039-0.729-1.771
		c-0.137-0.732-0.238-1.611-0.238-2.643v-8.809h-2.765v9.453C53.709,114.181,53.705,115.22,53.919,116.167"/>
</g>
<g>
	<path fill="#003349" d="M78.304,103.097c0.885,0,1.646,0.064,2.275,0.195c0.635,0.127,1.084,0.248,1.338,0.355l-0.547,2.578
		c-0.258-0.131-0.625-0.254-1.094-0.371c-0.473-0.117-1.055-0.178-1.742-0.178c-1.396,0-2.379,0.383-2.936,1.145
		s-0.84,1.787-0.84,3.076v10.32h-2.998v-10.383c0-2.148,0.527-3.809,1.582-4.98S76.054,103.097,78.304,103.097"/>
</g>
<g>
	<path fill="#003349" d="M100.486,43.457c-0.434-1.896-0.941-3.518-1.996-4.871c-1.055-1.354-2.691-2.406-4.453-3.16
		c-1.572-0.667-3.271-1.023-6.029-1.097c-2.764,0.073-4.42,0.43-5.992,1.097c-1.758,0.754-3.256,1.806-4.311,3.16
		c-1.055,1.354-1.656,2.975-2.086,4.871c-0.43,1.891-0.508,3.973-0.508,6.249v18.908h5.523V50.995c0-2.062,0.195-3.824,0.473-5.286
		c0.279-1.461,0.762-2.645,1.412-3.545c0.645-0.901,1.703-1.561,2.773-1.967c0.717-0.272,1.791-0.445,2.715-0.533
		c1.84,0.088,2.02,0.261,2.742,0.533c1.07,0.406,2.051,1.065,2.691,1.967c0.645,0.9,1.172,2.084,1.449,3.545
		c0.279,1.462,0.479,3.224,0.479,5.286v17.619h5.527V49.706C100.896,47.429,100.912,45.347,100.486,43.457"/>
</g>
<g>
	<path fill="#003349" d="M143.171,95.201c0.879,0,1.637,0.064,2.271,0.191c0.635,0.131,1.078,0.248,1.338,0.355l-0.547,2.578
		c-0.26-0.127-0.625-0.248-1.1-0.371c-0.469-0.117-1.049-0.176-1.738-0.176c-1.4,0-2.377,0.381-2.934,1.143
		c-0.562,0.768-0.836,1.793-0.836,3.082v1.449h6.445v2.516h-6.445v14.25h-3.002v-18.283c0-2.145,0.527-3.805,1.582-4.977
		C139.255,95.785,140.912,95.201,143.171,95.201z"/>
</g>
<g>
	<path fill="#003349" d="M151.873,103.453h6.348v2.516h-6.348v7.738c0,0.836,0.068,1.529,0.195,2.08
		c0.127,0.545,0.322,0.977,0.582,1.285c0.254,0.312,0.576,0.531,0.961,0.664c0.391,0.127,0.84,0.189,1.357,0.189
		c0.898,0,1.627-0.098,2.174-0.303c0.551-0.205,0.932-0.352,1.146-0.434l0.582,2.48c-0.309,0.15-0.83,0.336-1.582,0.566
		c-0.752,0.225-1.611,0.336-2.578,0.336c-1.139,0-2.08-0.146-2.822-0.434c-0.742-0.293-1.338-0.729-1.787-1.309
		c-0.455-0.576-0.771-1.295-0.953-2.145c-0.18-0.844-0.273-1.83-0.273-2.949V98.781l2.998-0.518V103.453z"/>
</g>
<g>
	<path fill="#003349" d="M88.001,22.662c15.889,0,28.812,12.925,28.812,28.811c0,15.884-12.924,28.807-28.812,28.807
		c-15.883,0-28.809-12.923-28.809-28.807C59.193,35.586,72.119,22.662,88.001,22.662 M88.001,17.138
		c-18.959,0-34.331,15.371-34.331,34.334c0,18.96,15.372,34.33,34.331,34.33c18.965,0,34.336-15.37,34.336-34.33
		C122.337,32.509,106.966,17.138,88.001,17.138L88.001,17.138z"/>
</g>
</svg>
